<svg width="24" height="24" viewBox="0 0 24 24" fill="none" xmlns="http://www.w3.org/2000/svg">
<path d="M21 21.0002L16.657 16.6572M16.657 16.6572C17.3999 15.9143 17.9892 15.0324 18.3912 14.0618C18.7933 13.0911 19.0002 12.0508 19.0002 11.0002C19.0002 9.9496 18.7933 8.90929 18.3912 7.93866C17.9892 6.96803 17.3999 6.08609 16.657 5.34321C15.9141 4.60032 15.0322 4.01103 14.0615 3.60898C13.0909 3.20693 12.0506 3 11 3C9.94939 3 8.90908 3.20693 7.93845 3.60898C6.96782 4.01103 6.08588 4.60032 5.34299 5.34321C3.84266 6.84354 2.99979 8.87842 2.99979 11.0002C2.99979 13.122 3.84266 15.1569 5.34299 16.6572C6.84332 18.1575 8.87821 19.0004 11 19.0004C13.1218 19.0004 15.1567 18.1575 16.657 16.6572Z" stroke="black" stroke-width="2.5" stroke-linecap="round" stroke-linejoin="round"/>
</svg>
