<svg width="113" height="24" viewBox="0 0 113 24" fill="none" xmlns="http://www.w3.org/2000/svg">
<path d="M93.6219 24V13.3283C93.6219 11.7419 94.0065 10.3238 94.7756 9.074C95.5688 7.80013 96.6744 6.80266 98.0925 6.0816C99.5346 5.36053 101.217 5 103.14 5C105.063 5 106.721 5.36053 108.115 6.0816C109.509 6.80266 110.579 7.80013 111.324 9.074C112.069 10.3238 112.442 11.7419 112.442 13.3283V24H106.168V13.6167C106.168 13.0639 106.036 12.5591 105.772 12.1025C105.507 11.6218 105.135 11.2372 104.654 10.9488C104.197 10.6603 103.657 10.5161 103.032 10.5161C102.431 10.5161 101.878 10.6603 101.373 10.9488C100.893 11.2372 100.52 11.6218 100.256 12.1025C99.9913 12.5591 99.8591 13.0639 99.8591 13.6167V24H93.6219Z" fill="#00B7F1"/>
<path d="M81.7165 24C79.8835 24 78.215 23.6005 76.711 22.8015C75.2304 21.979 74.0437 20.851 73.1507 19.4174C72.2577 17.9839 71.8112 16.3389 71.8112 14.4824C71.8112 12.6494 72.2577 11.0161 73.1507 9.58256C74.0437 8.14904 75.2422 7.03278 76.7462 6.23377C78.2502 5.41126 79.9188 5 81.7518 5C83.5848 5 85.2416 5.41126 86.7221 6.23377C88.2261 7.03278 89.4129 8.14904 90.2824 9.58256C91.1754 11.0161 91.6219 12.6494 91.6219 14.4824C91.6219 16.3389 91.1754 17.9839 90.2824 19.4174C89.4129 20.851 88.2261 21.979 86.7221 22.8015C85.2416 23.6005 83.5731 24 81.7165 24ZM81.7165 18.5714C82.4685 18.5714 83.1266 18.3952 83.6906 18.0427C84.2781 17.6902 84.7246 17.2084 85.0301 16.5974C85.3356 15.9629 85.4883 15.2579 85.4883 14.4824C85.4883 13.6834 85.3356 12.9784 85.0301 12.3673C84.7246 11.7563 84.2781 11.2746 83.6906 10.9221C83.1266 10.5696 82.4685 10.3933 81.7165 10.3933C80.9645 10.3933 80.3065 10.5696 79.7425 10.9221C79.1785 11.2746 78.732 11.7563 78.403 12.3673C78.0975 12.9784 77.9447 13.6834 77.9447 14.4824C77.9447 15.2579 78.0975 15.9629 78.403 16.5974C78.732 17.2084 79.1785 17.6902 79.7425 18.0427C80.3065 18.3952 80.9645 18.5714 81.7165 18.5714Z" fill="#00B7F1"/>
<path d="M59.9057 24C58.0727 24 56.4042 23.6005 54.9002 22.8015C53.4197 21.979 52.2329 20.851 51.3399 19.4174C50.4469 17.9839 50.0004 16.3389 50.0004 14.4824C50.0004 12.6494 50.4469 11.0161 51.3399 9.58256C52.2329 8.14904 53.4314 7.03278 54.9354 6.23377C56.4395 5.41126 58.108 5 59.941 5C61.774 5 63.4308 5.41126 64.9113 6.23377C66.4153 7.03278 67.6021 8.14904 68.4716 9.58256C69.3646 11.0161 69.8111 12.6494 69.8111 14.4824C69.8111 16.3389 69.3646 17.9839 68.4716 19.4174C67.6021 20.851 66.4153 21.979 64.9113 22.8015C63.4308 23.6005 61.7623 24 59.9057 24ZM59.9057 18.5714C60.6578 18.5714 61.3158 18.3952 61.8798 18.0427C62.4673 17.6902 62.9138 17.2084 63.2193 16.5974C63.5248 15.9629 63.6776 15.2579 63.6776 14.4824C63.6776 13.6834 63.5248 12.9784 63.2193 12.3673C62.9138 11.7563 62.4673 11.2746 61.8798 10.9221C61.3158 10.5696 60.6578 10.3933 59.9057 10.3933C59.1537 10.3933 58.4957 10.5696 57.9317 10.9221C57.3677 11.2746 56.9212 11.7563 56.5922 12.3673C56.2867 12.9784 56.1339 13.6834 56.1339 14.4824C56.1339 15.2579 56.2867 15.9629 56.5922 16.5974C56.9212 17.2084 57.3677 17.6902 57.9317 18.0427C58.4957 18.3952 59.1537 18.5714 59.9057 18.5714Z" fill="#00B7F1"/>
<path d="M42.6478 23.8904C40.978 23.8904 39.6628 23.4215 38.7021 22.4837C37.7642 21.523 37.2953 20.2191 37.2953 18.5722V2H43.2311V18.1262C43.2311 18.3778 43.3226 18.5951 43.5056 18.7781C43.6886 18.9382 43.9059 19.0183 44.1575 19.0183H48.0003V23.8904H42.6478ZM34.5161 10.8866V6.22025H48.0003V10.8866H34.5161Z" fill="#00B7F1"/>
<path d="M9.69425 24C7.8317 24 6.17111 23.6185 4.71248 22.8555C3.25386 22.0701 2.09818 20.9705 1.24544 19.5568C0.415147 18.1431 0 16.46 0 14.5077V0H6.29453V14.6087C6.29453 15.3492 6.42917 16.0112 6.69846 16.5947C6.99018 17.1557 7.38289 17.6045 7.87658 17.9411C8.39271 18.2777 8.9986 18.446 9.69425 18.446C10.3899 18.446 10.9958 18.2777 11.5119 17.9411C12.028 17.6045 12.4208 17.1557 12.69 16.5947C12.9593 16.0112 13.094 15.3492 13.094 14.6087V0H19.4558V14.6087C19.4558 15.3492 19.5905 16.0112 19.8597 16.5947C20.129 17.1557 20.5217 17.6045 21.0379 17.9411C21.554 18.2777 22.1599 18.446 22.8555 18.446C23.5512 18.446 24.1459 18.2777 24.6395 17.9411C25.1557 17.6045 25.5484 17.1557 25.8177 16.5947C26.1094 16.0112 26.2553 15.3492 26.2553 14.6087V0H32.5161V14.5077C32.5161 16.46 32.101 18.1431 31.2707 19.5568C30.4404 20.9705 29.2959 22.0701 27.8373 22.8555C26.4011 23.6185 24.7405 24 22.8555 24C21.9579 24 21.1052 23.899 20.2973 23.6971C19.4895 23.4951 18.7489 23.2034 18.0757 22.8219C17.4025 22.4404 16.7966 21.9804 16.2581 21.4418C15.7195 21.9579 15.1136 22.418 14.4404 22.8219C13.7672 23.2034 13.0266 23.4951 12.2188 23.6971C11.4334 23.899 10.5919 24 9.69425 24Z" fill="#00B7F1"/>
</svg>
